<?xml version="1.0" encoding="UTF-8"?><svg id="Layer_1" xmlns="http://www.w3.org/2000/svg" viewBox="0 0 105 94"><defs><style>.cls-1{fill:#16170f;}.cls-1,.cls-2{stroke-width:0px;}.cls-2{fill:#fef7b1;}</style></defs><path class="cls-2" d="M52.5.19c31.94,0,52.5,18.38,52.5,46.81s-20.56,46.81-52.5,46.81S0,75.43,0,47,21,.19,52.5.19Z"/><path class="cls-1" d="M74.1,32.6v21.6h-36v-21.6h36ZM38.1,30.2h-2.4v26.4h40.8v-26.4h-38.4ZM56.1,48.2c-2.65,0-4.8-2.15-4.8-4.8s2.15-4.8,4.8-4.8,4.8,2.15,4.8,4.8-2.15,4.8-4.8,4.8ZM48.9,43.4c0,3.98,3.22,7.2,7.2,7.2s7.2-3.22,7.2-7.2-3.22-7.2-7.2-7.2-7.2,3.22-7.2,7.2ZM30.9,36.2v-1.2h-2.4v28.8h40.8v-2.4H30.9v-25.2Z"/></svg>