<?xml version="1.0" encoding="UTF-8"?><svg id="Layer_1" xmlns="http://www.w3.org/2000/svg" viewBox="0 0 105 94"><defs><style>.cls-1{fill:#16170f;}.cls-1,.cls-2{stroke-width:0px;}.cls-2{fill:#fef7b1;}</style></defs><path class="cls-2" d="M52.5.19c31.94,0,52.5,18.38,52.5,46.81s-20.56,46.81-52.5,46.81S0,75.43,0,47,21,.19,52.5.19Z"/><path class="cls-1" d="M59.93,24.5v-1.5h-3v9h3v-7.5ZM49.85,23.92l-2.49,1.67.83,1.25,3,4.5.83,1.25,2.49-1.67-.83-1.25-3-4.5-.83-1.25ZM67.01,23.92l-.83,1.25-3,4.5-.83,1.25,2.49,1.67.83-1.25,3-4.5.83-1.25-2.48-1.67h0ZM45.24,34.69l-1.06-1.06-1.06,1.06-3.44,3.44-1.94-1.94-1.06-1.06-1.06,1.06-4.5,4.5-1.06,1.06,1.06,1.06,1.94,1.94-3.44,3.44-1.06,1.06,1.06,1.06,3.44,3.44-3.44,3.44-1.06,1.06,1.06,1.06,2.24,2.24h0s1.5,1.51,1.5,1.51l1.06,1.06,2.09,2.09c3.07,3.07,7.23,4.79,11.56,4.79,9.03,0,16.35-7.32,16.35-16.35v-16.65h-9v6.88l-10.19-10.19ZM35.18,42.63l-.88-.88,2.38-2.38.88.88h0l1.06,1.06,8.25,8.25,1.06,1.06h0l2.12-2.12-1.06-1.06-7.19-7.19,2.38-2.38,11.69,11.69,2.56-1.06v-7.5h3v13.65c0,7.37-5.98,13.35-13.35,13.35-3.54,0-6.94-1.41-9.44-3.91l-2.09-2.09-1.06-1.06-1.5-1.5-1.19-1.19,2.38-2.38,2.69,2.69,1.06,1.06,2.12-2.12-1.06-1.06-3.75-3.75-1.06-1.06-2.38-2.38,2.38-2.38,7.19,7.19,1.06,1.06,2.12-2.12-1.06-1.06-8.25-8.25-1.06-1.06ZM62.26,67.82c-1.1,1.18-2.34,2.22-3.7,3.1.51.05,1.02.07,1.54.07,9.02,0,16.34-7.32,16.34-16.35v-16.65h-9v6.88h0v4.25l.44.44,2.56-1.07v-7.5h3v13.65c0,6.63-4.84,12.13-11.18,13.17Z"/></svg>