<?xml version="1.0" encoding="UTF-8"?><svg id="Layer_1" xmlns="http://www.w3.org/2000/svg" viewBox="0 0 105 94"><defs><style>.cls-1{fill:#16170f;}.cls-1,.cls-2{stroke-width:0px;}.cls-2{fill:#fef7b1;}</style></defs><path class="cls-2" d="M52.5.19c31.94,0,52.5,18.38,52.5,46.81s-20.56,46.81-52.5,46.81S0,75.43,0,47,21,.19,52.5.19Z"/><path class="cls-1" d="M52.5,49.4l24-8.4v-2.4l-24-8.4-24,8.4v2.4l6.91,2.41-2.92,2.7-.39.36v5.33c-.18.89-.38,1.76-.61,2.6-.64,2.41-1.4,4.49-2,5.95-.57,1.41-.99,2.25-.99,2.25l2.42.49,3.58.71c1.88-4.4,1.14-7.48,0-9.42v-6.85l3.47-3.21,14.53,5.09ZM32.34,39.8l20.16-7.06,20.16,7.06-20.16,7.06-11.61-4.07,12.03-4.51-.84-2.25-14.4,5.4-.22.08-.06.05-5.06-1.77ZM39.27,47.32l-1.17,11.08c0,2.65,6.45,5.4,14.4,5.4s14.4-2.75,14.4-5.4l-1.17-11.08-2.32.82,1.07,10.15c-.05.06-.13.16-.28.28-.45.39-1.24.86-2.39,1.31-2.28.88-5.57,1.53-9.3,1.53s-7.02-.65-9.31-1.55c-1.15-.45-1.94-.92-2.39-1.31-.14-.12-.23-.21-.28-.28l1.07-10.14-2.32-.82h0ZM64.54,58.18h0,0ZM40.46,58.18h0,0ZM32.93,61.04l-1.04-.21c.07-.17.13-.34.2-.52.32-.85.68-1.83,1.03-2.92.19.95.21,2.15-.19,3.65h0Z"/></svg>