<?xml version="1.0" encoding="UTF-8"?><svg id="Layer_1" xmlns="http://www.w3.org/2000/svg" viewBox="0 0 105 94"><defs><style>.cls-1{fill:#16170f;}.cls-1,.cls-2{stroke-width:0px;}.cls-2{fill:#fef7b1;}</style></defs><path class="cls-2" d="M52.5.19c31.94,0,52.5,18.38,52.5,46.81s-20.56,46.81-52.5,46.81S0,75.43,0,47,21,.19,52.5.19Z"/><path class="cls-1" d="M44.04,34.79c1.07-1.07,2.14-1.86,3.18-2.44l-1.45-2.62c-1.05.59-2.1,1.33-3.13,2.27h-7.87c.88-2.58,3.92-6,10.23-6,4.27,0,7.04,1.57,8.65,3.37l.68.75.96-.35c1.29-.47,2.86-.77,4.72-.77,6.31,0,9.35,3.42,10.23,6h-17.9l-.44.44-10.83,10.83c-1.21-2.45-1.47-7.01,2.99-11.48h0ZM45,23c-9.13,0-13.5,6.21-13.5,10.5v1.5h8.45c-4.15,5.84-2.82,11.97-.14,14.64l1.06,1.06,1.06-1.06,8.85-8.85c-.04.37-.08.74-.13,1.13-.5,3.82-1.59,8.82-3.97,14.07h-3.17c-6.63,0-12,5.37-12,12v3h36v-3c0-6.09-4.54-11.12-10.42-11.9,1.84-6.01,1.93-11.59,1.51-15.82-.08-.82-.18-1.58-.29-2.29h13.7s1.5,0,1.5,0v-1.5c0-4.29-4.37-10.5-13.5-10.5-1.78,0-3.38.23-4.82.65-2.23-2.1-5.62-3.65-10.18-3.65ZM55.26,38c.13.79.25,1.65.35,2.59.41,4.12.3,9.57-1.63,15.41h-4.03c2.16-5.12,3.19-9.95,3.68-13.68.22-1.69.33-3.15.38-4.32h1.27,0ZM43.5,59h12c4.97,0,9,4.03,9,9h-30c0-4.97,4.03-9,9-9Z"/></svg>