<?xml version="1.0" encoding="UTF-8"?><svg id="Layer_1" xmlns="http://www.w3.org/2000/svg" viewBox="0 0 105 94"><defs><style>.cls-1{fill:#16170f;}.cls-1,.cls-2{stroke-width:0px;}.cls-2{fill:#fef7b1;}</style></defs><path class="cls-2" d="M52.5.19c31.94,0,52.5,18.38,52.5,46.81s-20.56,46.81-52.5,46.81S0,75.43,0,47,21,.19,52.5.19Z"/><path class="cls-1" d="M66.01,30.37l.85-.85-1.7-1.7-.85.85-3.86,3.86h-16.38v19.28h9.64v-7.23h10.85v4.82h-2.41v5.42h-3.62v4.22h-13.76l-.35.35-4.22,4.22-.85.85,1.7,1.7.85-.85,3.86-3.86h15.17v-4.22h3.62v-5.42h2.41v-9.65h-13.26v-3.01h-2.41v10.24h-4.82v-14.46h14.96l.35-.35,4.22-4.22h0ZM69.37,42.89v3.41l6.27-6.27.85-.86-1.7-1.7-.85.85-4.57,4.57ZM36.83,37.36h-1.21v10.35l-6.27,6.27-.85.85,1.7,1.7.85-.85,6.63-6.63.35-.35v-8.93h3.62v-2.41h-4.82Z"/></svg>